<?xml version="1.0" encoding="utf-8"?>
<!-- Generated by Mocodo 4.1.2 -->
<svg width="644" height="193" viewBox="0 0 644 193" xmlns="http://www.w3.org/2000/svg">
<rect x="0" y="0" width="644" height="193" fill="#f5f5f5" stroke="none" stroke-width="0"/>

<!-- Association DF0 -->
<g>
	<line x1="44" y1="68" x2="155" y2="168" stroke="#bf812d" stroke-width="2"/>
	<line x1="155" y1="68" x2="155" y2="168" stroke="#bf812d" stroke-width="2"/>
	<g>
		<circle cx="155" cy="168" r="16" stroke="#bf812d" stroke-width="2" fill="#dfc27d"/>
		<text x="146" y="172" fill="#000000" font-family="Verdana" font-size="12">DF</text>
	</g>
	<text x="84" y="98.08" fill="#01665e" font-family="Verdana" font-size="12">1,1</text>
	<line x1="84" y1="100.08" x2="105" y2="100.08" stroke="#01665e" stroke-width="1"/>
	<text x="128" y="144" fill="#01665e" font-family="Verdana" font-size="12">0,N</text>
</g>

<!-- Association DF1 -->
<g>
	<line x1="290" y1="68" x2="290" y2="168" stroke="#bf812d" stroke-width="2"/>
	<line x1="436" y1="68" x2="290" y2="168" stroke="#bf812d" stroke-width="2"/>
	<g>
		<circle cx="290" cy="168" r="16" stroke="#bf812d" stroke-width="2" fill="#dfc27d"/>
		<text x="281" y="172" fill="#000000" font-family="Verdana" font-size="12">DF</text>
	</g>
	<text x="295" y="136" fill="#01665e" font-family="Verdana" font-size="12">1,1</text>
	<line x1="295" y1="138" x2="316" y2="138" stroke="#01665e" stroke-width="1"/>
	<text x="354" y="102.9" fill="#01665e" font-family="Verdana" font-size="12">0,N</text>
</g>

<!-- Association DF2 -->
<g>
	<line x1="155" y1="68" x2="436" y2="168" stroke="#bf812d" stroke-width="2"/>
	<line x1="579" y1="68" x2="436" y2="168" stroke="#bf812d" stroke-width="2"/>
	<g>
		<circle cx="436" cy="168" r="16" stroke="#bf812d" stroke-width="2" fill="#dfc27d"/>
		<text x="427" y="172" fill="#000000" font-family="Verdana" font-size="12">DF</text>
	</g>
	<text x="204" y="78.44" fill="#01665e" font-family="Verdana" font-size="12">1,1</text>
	<line x1="204" y1="80.44" x2="225" y2="80.44" stroke="#01665e" stroke-width="1"/>
	<text x="496" y="104.49" fill="#01665e" font-family="Verdana" font-size="12">0,N</text>
</g>

<!-- Entity ARTISTE -->
<g>
	<g>
		<rect x="9" y="17" width="70" height="25" fill="#80cdc1" stroke="none" stroke-width="0" opacity="1"/>
		<rect x="9" y="42" width="70" height="77" fill="#c7eae5" stroke="none" stroke-width="0" opacity="1"/>
		<rect x="9" y="17" width="70" height="102" fill="none" stroke="#35978f" stroke-width="2" opacity="1"/>
		<line x1="9" y1="42" x2="79" y2="42" stroke="#35978f" stroke-width="1"/>
	</g>
	<text x="18" y="34.75" fill="#000000" font-family="Verdana" font-size="12">ARTISTE</text>
	<text x="14" y="59.8" fill="#000000" font-family="Verdana" font-size="12">artiste_id</text>
	<line x1="14" y1="62" x2="72" y2="62" stroke="#000000" stroke-width="1" stroke-dasharray="4"/>
	<text x="14" y="76.8" fill="#000000" font-family="Verdana" font-size="12">nom</text>
	<text x="14" y="93.8" fill="#000000" font-family="Verdana" font-size="12">bio</text>
	<text x="14" y="110.8" fill="#000000" font-family="Verdana" font-size="12">photo_url</text>
</g>

<!-- Entity ALBUM -->
<g>
	<g>
		<rect x="111" y="9" width="88" height="25" fill="#80cdc1" stroke="none" stroke-width="0" opacity="1"/>
		<rect x="111" y="34" width="88" height="93" fill="#c7eae5" stroke="none" stroke-width="0" opacity="1"/>
		<rect x="111" y="9" width="88" height="118" fill="none" stroke="#35978f" stroke-width="2" opacity="1"/>
		<line x1="111" y1="34" x2="199" y2="34" stroke="#35978f" stroke-width="1"/>
	</g>
	<text x="134" y="26.75" fill="#000000" font-family="Verdana" font-size="12">ALBUM</text>
	<text x="116" y="51.8" fill="#000000" font-family="Verdana" font-size="12">album_id</text>
	<line x1="116" y1="54" x2="173" y2="54" stroke="#000000" stroke-width="1" stroke-dasharray="4"/>
	<text x="116" y="68.8" fill="#000000" font-family="Verdana" font-size="12">titre</text>
	<text x="116" y="85.8" fill="#000000" font-family="Verdana" font-size="12">annee</text>
	<text x="116" y="102.8" fill="#000000" font-family="Verdana" font-size="12">genre</text>
	<text x="116" y="119.8" fill="#000000" font-family="Verdana" font-size="12">pochette_url</text>
</g>

<!-- Entity UTILISATEUR -->
<g>
	<g>
		<rect x="231" y="17" width="118" height="25" fill="#80cdc1" stroke="none" stroke-width="0" opacity="1"/>
		<rect x="231" y="42" width="118" height="77" fill="#c7eae5" stroke="none" stroke-width="0" opacity="1"/>
		<rect x="231" y="17" width="118" height="102" fill="none" stroke="#35978f" stroke-width="2" opacity="1"/>
		<line x1="231" y1="42" x2="349" y2="42" stroke="#35978f" stroke-width="1"/>
	</g>
	<text x="249" y="34.75" fill="#000000" font-family="Verdana" font-size="12">UTILISATEUR</text>
	<text x="236" y="59.8" fill="#000000" font-family="Verdana" font-size="12">user_id</text>
	<line x1="236" y1="62" x2="282" y2="62" stroke="#000000" stroke-width="1" stroke-dasharray="4"/>
	<text x="236" y="76.8" fill="#000000" font-family="Verdana" font-size="12">username</text>
	<text x="236" y="93.8" fill="#000000" font-family="Verdana" font-size="12">password</text>
	<text x="236" y="110.8" fill="#000000" font-family="Verdana" font-size="12">email (Optionnel)</text>
</g>

<!-- Entity PLAYLIST -->
<g>
	<g>
		<rect x="381" y="26" width="110" height="25" fill="#80cdc1" stroke="none" stroke-width="0" opacity="1"/>
		<rect x="381" y="51" width="110" height="59" fill="#c7eae5" stroke="none" stroke-width="0" opacity="1"/>
		<rect x="381" y="26" width="110" height="84" fill="none" stroke="#35978f" stroke-width="2" opacity="1"/>
		<line x1="381" y1="51" x2="491" y2="51" stroke="#35978f" stroke-width="1"/>
	</g>
	<text x="407" y="43.75" fill="#000000" font-family="Verdana" font-size="12">PLAYLIST</text>
	<text x="386" y="68.8" fill="#000000" font-family="Verdana" font-size="12">playlist_id</text>
	<line x1="386" y1="71" x2="448" y2="71" stroke="#000000" stroke-width="1"/>
	<text x="386" y="85.8" fill="#000000" font-family="Verdana" font-size="12">user_id</text>
	<text x="386" y="102.8" fill="#000000" font-family="Verdana" font-size="12">titre (Optionnel)</text>
</g>

<!-- Entity NOTE -->
<g>
	<g>
		<rect x="523" y="17" width="112" height="25" fill="#80cdc1" stroke="none" stroke-width="0" opacity="1"/>
		<rect x="523" y="42" width="112" height="77" fill="#c7eae5" stroke="none" stroke-width="0" opacity="1"/>
		<rect x="523" y="17" width="112" height="102" fill="none" stroke="#35978f" stroke-width="2" opacity="1"/>
		<line x1="523" y1="42" x2="635" y2="42" stroke="#35978f" stroke-width="1"/>
	</g>
	<text x="562" y="34.75" fill="#000000" font-family="Verdana" font-size="12">NOTE</text>
	<text x="528" y="59.8" fill="#000000" font-family="Verdana" font-size="12">note_id</text>
	<line x1="528" y1="62" x2="574" y2="62" stroke="#000000" stroke-width="1"/>
	<text x="528" y="76.8" fill="#000000" font-family="Verdana" font-size="12">album_id</text>
	<text x="528" y="93.8" fill="#000000" font-family="Verdana" font-size="12">user_id</text>
	<text x="528" y="110.8" fill="#000000" font-family="Verdana" font-size="12">note (Optionnel)</text>
</g>
</svg>